<mxfile host="app.diagrams.net" modified="2024-06-26T14:03:28.803Z" agent="Mozilla/5.0 (Windows NT 10.0; Win64; x64) AppleWebKit/537.36 (KHTML, like Gecko) Chrome/126.0.0.0 Safari/537.36" version="24.0.7" etag="z4-EOg_imY8Nb6im1gMc" type="github">
  <diagram name="Page-1" id="HeFJGOt8-fZyJ46oGnPW">
    <mxGraphModel>
      <root>
        <mxCell id="0" />
        <mxCell id="1" parent="0" />
      </root>
    </mxGraphModel>
  </diagram>
</mxfile>
